# xmcd CD database file
#
# Track frame offsets:
#	150
#	19276
#	35695
#	54958
#	69595
#	83456
#	96143
#	110634
#	139771
#	165197
#	180651
#	197260
#	213392
#	236969
#	249451
#	265759
#	283035
#	300676
#	312613
#
# Disc length: 4337 seconds
#
# Revision: 0
# Processed by: cddbd v1.5.1PL0 Copyright (c) Steve Scherf et al.
# Submitted via: CDex 1.40Release
#
DISCID=0810ef13
DTITLE=Hank Häberle - Best of
DYEAR=1900
DGENRE=Country
TTITLE0=I schwätz schwäbisch
TTITLE1=GTI
TTITLE2=Schwobahymne
TTITLE3=Hiom ens Schwobaland
TTITLE4=Koiner kennt mi
TTITLE5=Drecksäck, scharfe Weiber ...
TTITLE6=I ben dr Gaul
TTITLE7=Uffschdau !
TTITLE8=GTI Live
TTITLE9=Schwob aus Zuffahausa
TTITLE10=Wiascht ond gfährlich
TTITLE11=I glaub mei Schwobaländle
TTITLE12=Domm gloffa
TTITLE13=Au Schwobaland wie bisch du schee
TTITLE14=Wenns em Hemmel
TTITLE15=Reng aus Feier
TTITLE16=Sag isch des dr Dank
TTITLE17=Dr Apratratra
TTITLE18=Flichtlengswalzer
EXTD=ID3G: 2
EXTT0=
EXTT1=
EXTT2=
EXTT3=
EXTT4=
EXTT5=
EXTT6=
EXTT7=
EXTT8=
EXTT9=
EXTT10=
EXTT11=
EXTT12=
EXTT13=
EXTT14=
EXTT15=
EXTT16=
EXTT17=
EXTT18=
PLAYORDER=
